<svg width="200" height="200" xmlns="http://www.w3.org/2000/svg">
    <!-- Background Circle -->
    <circle cx="100" cy="100" r="95" fill="#31394D" />

    <!-- CMake Gear Symbol -->
    <path d="M100 10 L115 40 A80 80 0 0 0 185 100 L155 115 A50 50 0 0 1 100 40z" fill="#64C7FF" />
    <path d="M10 100 L40 115 A80 80 0 0 0 100 185 L85 155 A50 50 0 0 1 40 100z" fill="#64C7FF" />
    <path d="M100 190 L85 160 A80 80 0 0 0 15 100 L45 85 A50 50 0 0 1 100 160z" fill="#64C7FF" />
    <path d="M190 100 L160 85 A80 80 0 0 0 100 15 L115 45 A50 50 0 0 1 160 100z" fill="#64C7FF" />

    <!-- Utility/Function Symbol (U for Utils) -->
    <text x="100" y="130" font-family="Arial" font-size="80" text-anchor="middle" fill="white">U</text>

    <!-- Microcontroller/Chip Silhouette at the Bottom -->
    <rect x="70" y="170" width="60" height="20" rx="5" ry="5" fill="white" />
    <circle cx="70" cy="180" r="3" fill="white" />
    <circle cx="130" cy="180" r="3" fill="white" />

</svg>
